<svg width="600" height="200" viewBox="0 0 600 200" xmlns="http://www.w3.org/2000/svg"><path d="M0 0h600v2H0zm0 4h600v2H0zm0 4h600v2H0zm0 4h600v2H0zm0 4h600v2H0zm0 4h600v2H0zm0 4h600v2H0zm0 4h600v2H0zm0 4h600v2H0zm0 4h600v2H0zm0 4h600v2H0zm0 4h600v2H0zm0 4h600v2H0zm0 4h600v2H0zm0 4h600v2H0zm0 4h600v2H0zm0 4h600v2H0zm0 4h600v2H0zm0 4h600v2H0zm0 4h600v2H0zm0 4h600v2H0zm0 4h600v2H0zm0 4h600v2H0zm0 4h600v2H0zm0 4h600v2H0zm0 4h600v2H0zm0 4h600v2H0zm0 4h600v2H0zm0 4h600v2H0zm0 4h600v2H0zm0 4h600v2H0zm0 4h600v2H0zm0 4h600v2H0zm0 4h600v2H0zm0 4h600v2H0zm0 4h600v2H0zm0 4h600v2H0zm0 4h600v2H0zm0 4h600v2H0zm0 4h600v2H0zm0 4h600v2H0zm0 4h600v2H0zm0 4h600v2H0zm0 4h600v2H0zm0 4h600v2H0zm0 4h600v2H0zm0 4h600v2H0zm0 4h600v2H0zm0 4h600v2H0zm0 4h600v2H0z" fill="#35322A" fill-rule="evenodd"/></svg>